# This file uses centimeters as units for non-parametric coordinates.

mtllib cameraScreen.mtl
g default
v -5.202205 0.130485 1.037652
v -2.618006 0.130485 1.037652
v -0.033808 0.130485 1.037652
v 2.550391 0.130485 1.037652
v 5.134590 0.130485 1.037652
v -5.202205 2.974732 1.037652
v -2.618006 2.974732 1.037652
v -0.033808 2.974732 1.037652
v 2.550391 2.974732 1.037652
v 5.134590 2.974732 1.037652
v -5.202205 2.974732 -1.082941
v -2.618006 2.974732 -1.082941
v -0.033808 2.974732 -1.082941
v 2.550391 2.974732 -1.082941
v 5.134590 2.974732 -1.082941
v -5.202205 0.130485 -1.082941
v -2.618006 0.130485 -1.082941
v -0.033808 0.130485 -1.082941
v 2.550391 0.130485 -1.082941
v 5.134590 0.130485 -1.082941
vt 0.003496 0.642790
vt 0.454158 0.642790
vt 0.454158 0.999339
vt 0.003496 0.999339
vt 0.550059 0.636789
vt 0.999060 0.636789
vt 0.999060 0.996271
vt 0.550059 0.996271
vt 0.000274 0.300430
vt 0.454889 0.300430
vt 0.454889 0.638231
vt 0.000274 0.638231
vt 0.546443 0.301811
vt 1.001417 0.301811
vt 1.001417 0.629708
vt 0.546443 0.629708
vt 0.493935 0.114348
vt 0.506306 0.114348
vt 0.506306 0.163830
vt 0.493935 0.163830
vt 0.518676 0.114348
vt 0.518676 0.163830
vt 0.531047 0.114348
vt 0.531047 0.163830
vt 0.543417 0.114348
vt 0.543417 0.163830
vt 0.506306 0.213312
vt 0.493935 0.213312
vt 0.518676 0.213312
vt 0.531047 0.213312
vt 0.543417 0.213312
vt 0.506306 0.262794
vt 0.493935 0.262794
vt 0.518676 0.262794
vt 0.531047 0.262794
vt 0.543417 0.262794
vt 0.543417 0.064866
vt 0.592899 0.064866
vt 0.592899 0.114348
vt 0.543417 0.114348
vt 0.444453 0.064866
vt 0.493935 0.064866
vt 0.493935 0.114348
vt 0.444453 0.114348
vn 0.000000 0.000000 1.000000
vn 0.000000 0.000000 1.000000
vn 0.000000 0.000000 1.000000
vn 0.000000 0.000000 1.000000
vn 0.000000 0.000000 1.000000
vn 0.000000 0.000000 1.000000
vn 0.000000 0.000000 1.000000
vn 0.000000 0.000000 1.000000
vn 0.000000 0.000000 1.000000
vn 0.000000 0.000000 1.000000
vn 0.000000 0.000000 1.000000
vn 0.000000 0.000000 1.000000
vn 0.000000 0.000000 1.000000
vn 0.000000 0.000000 1.000000
vn 0.000000 0.000000 1.000000
vn 0.000000 0.000000 1.000000
vn 0.000000 1.000000 0.000000
vn 0.000000 1.000000 0.000000
vn 0.000000 1.000000 0.000000
vn 0.000000 1.000000 0.000000
vn 0.000000 1.000000 0.000000
vn 0.000000 1.000000 0.000000
vn 0.000000 1.000000 0.000000
vn 0.000000 1.000000 0.000000
vn 0.000000 1.000000 0.000000
vn 0.000000 1.000000 0.000000
vn 0.000000 1.000000 0.000000
vn 0.000000 1.000000 0.000000
vn 0.000000 1.000000 0.000000
vn 0.000000 1.000000 0.000000
vn 0.000000 1.000000 0.000000
vn 0.000000 1.000000 0.000000
vn 0.000000 0.000000 -1.000000
vn 0.000000 0.000000 -1.000000
vn 0.000000 0.000000 -1.000000
vn 0.000000 0.000000 -1.000000
vn 0.000000 0.000000 -1.000000
vn 0.000000 0.000000 -1.000000
vn 0.000000 0.000000 -1.000000
vn 0.000000 0.000000 -1.000000
vn 0.000000 0.000000 -1.000000
vn 0.000000 0.000000 -1.000000
vn 0.000000 0.000000 -1.000000
vn 0.000000 0.000000 -1.000000
vn 0.000000 0.000000 -1.000000
vn 0.000000 0.000000 -1.000000
vn 0.000000 0.000000 -1.000000
vn 0.000000 0.000000 -1.000000
vn 0.000000 -1.000000 0.000000
vn 0.000000 -1.000000 0.000000
vn 0.000000 -1.000000 0.000000
vn 0.000000 -1.000000 0.000000
vn 0.000000 -1.000000 0.000000
vn 0.000000 -1.000000 0.000000
vn 0.000000 -1.000000 0.000000
vn 0.000000 -1.000000 0.000000
vn 0.000000 -1.000000 0.000000
vn 0.000000 -1.000000 0.000000
vn 0.000000 -1.000000 0.000000
vn 0.000000 -1.000000 0.000000
vn 0.000000 -1.000000 0.000000
vn 0.000000 -1.000000 0.000000
vn 0.000000 -1.000000 0.000000
vn 0.000000 -1.000000 0.000000
vn 1.000000 0.000000 0.000000
vn 1.000000 0.000000 0.000000
vn 1.000000 0.000000 0.000000
vn 1.000000 0.000000 0.000000
vn -1.000000 0.000000 0.000000
vn -1.000000 0.000000 0.000000
vn -1.000000 0.000000 0.000000
vn -1.000000 0.000000 0.000000
s off
g cameraScreen:pCube1
usemtl initialShadingGroup
f 1/1/1 2/2/2 7/3/3 6/4/4
f 2/5/5 3/6/6 8/7/7 7/8/8
f 3/9/9 4/10/10 9/11/11 8/12/12
f 4/13/13 5/14/14 10/15/15 9/16/16
f 6/17/17 7/18/18 12/19/19 11/20/20
f 7/18/21 8/21/22 13/22/23 12/19/24
f 8/21/25 9/23/26 14/24/27 13/22/28
f 9/23/29 10/25/30 15/26/31 14/24/32
f 11/20/33 12/19/34 17/27/35 16/28/36
f 12/19/37 13/22/38 18/29/39 17/27/40
f 13/22/41 14/24/42 19/30/43 18/29/44
f 14/24/45 15/26/46 20/31/47 19/30/48
f 16/28/49 17/27/50 2/32/51 1/33/52
f 17/27/53 18/29/54 3/34/55 2/32/56
f 18/29/57 19/30/58 4/35/59 3/34/60
f 19/30/61 20/31/62 5/36/63 4/35/64
f 5/37/65 20/38/66 15/39/67 10/40/68
f 16/41/69 1/42/70 6/43/71 11/44/72
