# This file uses centimeters as units for non-parametric coordinates.

mtllib display_case.mtl
g default
v -1.500000 0.000000 1.500000
v 1.500000 0.000000 1.500000
v -1.500000 2.000000 1.500000
v 1.500000 2.000000 1.500000
v -1.500000 2.000000 -1.500000
v 1.500000 2.000000 -1.500000
v -1.500000 0.000000 -1.500000
v 1.500000 0.000000 -1.500000
v -1.500000 2.875000 1.500000
v -1.200000 2.875000 1.500000
v -0.900000 2.875000 1.500000
v -0.600000 2.875000 1.500000
v -0.300000 2.875000 1.500000
v 0.000000 2.875000 1.500000
v 0.300000 2.875000 1.500000
v 0.600000 2.875000 1.500000
v 0.900000 2.875000 1.500000
v 1.200000 2.875000 1.500000
v 1.500000 2.875000 1.500000
v -1.500000 3.125000 1.500000
v 1.500000 3.125000 1.500000
v -1.200000 3.125000 1.200000
v 1.200000 3.125000 1.200000
v -1.200000 3.125000 -1.200000
v 1.200000 3.125000 -1.200000
v -1.500000 3.125000 -1.500000
v 1.500000 3.125000 -1.500000
v -1.500000 2.875000 -1.500000
v -1.200000 2.875000 -1.500000
v -0.900000 2.875000 -1.500000
v -0.600000 2.875000 -1.500000
v -0.300000 2.875000 -1.500000
v 0.000000 2.875000 -1.500000
v 0.300000 2.875000 -1.500000
v 0.600000 2.875000 -1.500000
v 0.900000 2.875000 -1.500000
v 1.200000 2.875000 -1.500000
v 1.500000 2.875000 -1.500000
v -1.500000 2.875000 -1.200000
v -1.200000 2.875000 -1.200000
v -0.900000 2.875000 -1.200000
v -0.600000 2.875000 -1.200000
v -0.300000 2.875000 -1.200000
v 0.000000 2.875000 -1.200000
v 0.300000 2.875000 -1.200000
v 0.600000 2.875000 -1.200000
v 0.900000 2.875000 -1.200000
v 1.200000 2.875000 -1.200000
v 1.500000 2.875000 -1.200000
v -1.500000 2.875000 -0.900000
v -1.200000 2.875000 -0.900000
v 1.200000 2.875000 -0.900000
v 1.500000 2.875000 -0.900000
v -1.500000 2.875000 -0.600000
v -1.200000 2.875000 -0.600000
v 1.200000 2.875000 -0.600000
v 1.500000 2.875000 -0.600000
v -1.500000 2.875000 -0.300000
v -1.200000 2.875000 -0.300000
v 1.200000 2.875000 -0.300000
v 1.500000 2.875000 -0.300000
v -1.500000 2.875000 0.000000
v -1.200000 2.875000 0.000000
v 1.200000 2.875000 0.000000
v 1.500000 2.875000 0.000000
v -1.500000 2.875000 0.300000
v -1.200000 2.875000 0.300000
v 1.200000 2.875000 0.300000
v 1.500000 2.875000 0.300000
v -1.500000 2.875000 0.600000
v -1.200000 2.875000 0.600000
v 1.200000 2.875000 0.600000
v 1.500000 2.875000 0.600000
v -1.500000 2.875000 0.900000
v -1.200000 2.875000 0.900000
v 1.200000 2.875000 0.900000
v 1.500000 2.875000 0.900000
v -1.500000 2.875000 1.200000
v -1.200000 2.875000 1.200000
v -0.900000 2.875000 1.200000
v -0.600000 2.875000 1.200000
v -0.300000 2.875000 1.200000
v 0.000000 2.875000 1.200000
v 0.300000 2.875000 1.200000
v 0.600000 2.875000 1.200000
v 0.900000 2.875000 1.200000
v 1.200000 2.875000 1.200000
v 1.500000 2.875000 1.200000
v 1.200000 2.000106 -1.200000
v 1.500000 2.000106 -1.200000
v 1.200000 2.875406 -1.200000
v 1.500000 2.875406 -1.200000
v 1.200000 2.875406 -1.500000
v 1.500000 2.875406 -1.500000
v 1.200000 2.000106 -1.500000
v 1.500000 2.000106 -1.500000
v -1.500000 2.000106 1.500000
v -1.200000 2.000106 1.500000
v -1.500000 2.875406 1.500000
v -1.200000 2.875406 1.500000
v -1.500000 2.875406 1.200000
v -1.200000 2.875406 1.200000
v -1.500000 2.000106 1.200000
v -1.200000 2.000106 1.200000
v -1.500000 2.000106 -1.200000
v -1.200000 2.000106 -1.200000
v -1.500000 2.875406 -1.200000
v -1.200000 2.875406 -1.200000
v -1.500000 2.875406 -1.500000
v -1.200000 2.875406 -1.500000
v -1.500000 2.000106 -1.500000
v -1.200000 2.000106 -1.500000
v 1.200000 2.000106 1.500000
v 1.500000 2.000106 1.500000
v 1.200000 2.875406 1.500000
v 1.500000 2.875406 1.500000
v 1.200000 2.875406 1.200000
v 1.500000 2.875406 1.200000
v 1.200000 2.000106 1.200000
v 1.500000 2.000106 1.200000
vt 0.874548 -0.583975
vt 0.869225 -0.575753
vt 0.383483 0.598173
vt 0.122619 -0.088465
vt 0.863828 -0.070377
vt 0.598843 0.809081
vt 0.130326 -0.575713
vt 0.140811 -0.594892
vt 0.130326 -0.091664
vt 0.874312 -0.091664
vt 0.879912 -0.585146
vt 0.879912 -0.088465
vt 0.132198 -0.583975
vt 0.132198 -0.089636
vt 0.608837 0.133660
vt 0.561116 0.133660
vt 0.561116 0.085939
vt 0.565888 0.085939
vt 0.570660 0.085939
vt 0.575432 0.085939
vt 0.580205 0.085939
vt 0.584977 0.085939
vt 0.589749 0.085939
vt 0.594521 0.085939
vt 0.599293 0.085939
vt 0.604065 0.085939
vt 0.608837 0.085939
vt 0.561116 0.181381
vt 0.608837 0.181381
vt 0.604065 0.176609
vt 0.604065 0.138432
vt 0.565888 0.138432
vt 0.565888 0.176609
vt 0.604065 0.229101
vt 0.599293 0.229101
vt 0.594521 0.229101
vt 0.589749 0.229101
vt 0.584977 0.229101
vt 0.580205 0.229101
vt 0.575432 0.229101
vt 0.570660 0.229101
vt 0.565888 0.229101
vt 0.561116 0.229101
vt 0.608837 0.229101
vt 0.565888 0.233874
vt 0.561116 0.233874
vt 0.570660 0.233874
vt 0.575432 0.233874
vt 0.580205 0.233874
vt 0.584977 0.233874
vt 0.589749 0.233874
vt 0.594521 0.233874
vt 0.599293 0.233874
vt 0.604065 0.233874
vt 0.608837 0.233874
vt 0.565888 0.238646
vt 0.561116 0.238646
vt 0.608837 0.238646
vt 0.604065 0.238646
vt 0.565888 0.243418
vt 0.561116 0.243418
vt 0.608837 0.243418
vt 0.604065 0.243418
vt 0.565888 0.248190
vt 0.561116 0.248190
vt 0.608837 0.248190
vt 0.604065 0.248190
vt 0.565888 0.252962
vt 0.561116 0.252962
vt 0.608837 0.252962
vt 0.604065 0.252962
vt 0.565888 0.257734
vt 0.561116 0.257734
vt 0.608837 0.257734
vt 0.604065 0.257734
vt 0.565888 0.262506
vt 0.561116 0.262506
vt 0.608837 0.262506
vt 0.604065 0.262506
vt 0.565888 0.267278
vt 0.561116 0.267278
vt 0.608837 0.267278
vt 0.604065 0.267278
vt 0.565888 0.272050
vt 0.561116 0.272050
vt 0.608837 0.272050
vt 0.604065 0.272050
vt 0.565888 0.276822
vt 0.561116 0.276822
vt 0.570660 0.272050
vt 0.570660 0.276822
vt 0.575432 0.272050
vt 0.575432 0.276822
vt 0.580205 0.272050
vt 0.580205 0.276822
vt 0.584977 0.272050
vt 0.584977 0.276822
vt 0.589749 0.272050
vt 0.589749 0.276822
vt 0.594521 0.272050
vt 0.594521 0.276822
vt 0.599293 0.272050
vt 0.599293 0.276822
vt 0.604065 0.276822
vt 0.608837 0.276822
vt 0.656558 0.133660
vt 0.613609 0.085939
vt 0.618381 0.085939
vt 0.623153 0.085939
vt 0.627925 0.085939
vt 0.632697 0.085939
vt 0.637469 0.085939
vt 0.642242 0.085939
vt 0.647014 0.085939
vt 0.651786 0.085939
vt 0.656558 0.085939
vt 0.513395 0.133660
vt 0.513395 0.085939
vt 0.518168 0.085939
vt 0.522940 0.085939
vt 0.527712 0.085939
vt 0.532484 0.085939
vt 0.537256 0.085939
vt 0.542028 0.085939
vt 0.546800 0.085939
vt 0.551572 0.085939
vt 0.556344 0.085939
vt 0.561018 0.086084
vt 0.608739 0.086084
vt 0.608739 0.133805
vt 0.561018 0.133805
vt 0.608739 0.181526
vt 0.561018 0.181526
vt 0.608739 0.229247
vt 0.561018 0.229247
vt 0.608739 0.276968
vt 0.561018 0.276968
vt 0.656460 0.086084
vt 0.656460 0.133805
vt 0.513297 0.086084
vt 0.513297 0.133805
vt 0.561141 0.085227
vt 0.608862 0.085227
vt 0.608862 0.132948
vt 0.561141 0.132948
vt 0.608862 0.180668
vt 0.561141 0.180668
vt 0.608862 0.228389
vt 0.561141 0.228389
vt 0.608862 0.276110
vt 0.561141 0.276110
vt 0.656583 0.085227
vt 0.656583 0.132948
vt 0.513421 0.085227
vt 0.513421 0.132948
vt 0.111550 0.068333
vt 0.161535 0.068333
vt 0.161535 0.118318
vt 0.111550 0.118318
vt 0.161535 0.168303
vt 0.111550 0.168303
vt 0.161535 0.218289
vt 0.111550 0.218289
vt 0.161535 0.268274
vt 0.111550 0.268274
vt 0.211521 0.068333
vt 0.211521 0.118318
vt 0.061565 0.068333
vt 0.061565 0.118318
vt 0.561617 0.085174
vt 0.609338 0.085174
vt 0.609338 0.132894
vt 0.561617 0.132894
vt 0.609338 0.180615
vt 0.561617 0.180615
vt 0.609338 0.228336
vt 0.561617 0.228336
vt 0.609338 0.276057
vt 0.561617 0.276057
vt 0.657059 0.085174
vt 0.657059 0.132894
vt 0.513896 0.085174
vt 0.513896 0.132894
vt 0.874312 -0.575713
vt 0.122619 -0.585146
vt 0.878574 -0.573258
vt 0.135414 -0.575753
vt 0.126064 -0.092011
vt 0.383483 0.809081
vt 0.869225 -0.085300
vt 0.598843 0.598173
vt 0.135414 -0.085300
vt 0.874548 -0.089636
vn 0.000000 0.000000 1.000000
vn 0.000000 0.000000 1.000000
vn 0.000000 0.000000 1.000000
vn 0.000000 0.000000 1.000000
vn 0.000000 1.000000 0.000000
vn 0.000000 1.000000 0.000000
vn 0.000000 1.000000 0.000000
vn 0.000000 1.000000 0.000000
vn 0.000000 0.000000 -1.000000
vn 0.000000 0.000000 -1.000000
vn 0.000000 0.000000 -1.000000
vn 0.000000 0.000000 -1.000000
vn 0.000000 -1.000000 0.000000
vn 0.000000 -1.000000 0.000000
vn 0.000000 -1.000000 0.000000
vn 0.000000 -1.000000 0.000000
vn 1.000000 0.000000 0.000000
vn 1.000000 0.000000 0.000000
vn 1.000000 0.000000 0.000000
vn 1.000000 0.000000 0.000000
vn -1.000000 0.000000 0.000000
vn -1.000000 0.000000 0.000000
vn -1.000000 0.000000 0.000000
vn -1.000000 0.000000 0.000000
vn 0.000000 0.000000 1.000000
vn 0.000000 0.000000 1.000000
vn 0.000000 0.000000 1.000000
vn 0.000000 0.000000 1.000000
vn 0.000000 0.000000 1.000000
vn 0.000000 0.000000 1.000000
vn 0.000000 0.000000 1.000000
vn 0.000000 0.000000 1.000000
vn 0.000000 0.000000 1.000000
vn 0.000000 0.000000 1.000000
vn 0.000000 0.000000 1.000000
vn 0.000000 0.000000 1.000000
vn 0.000000 0.000000 1.000000
vn 0.000000 1.000000 0.000000
vn 0.000000 1.000000 0.000000
vn 0.000000 1.000000 0.000000
vn 0.000000 1.000000 0.000000
vn 0.000000 1.000000 0.000000
vn 0.000000 1.000000 0.000000
vn 0.000000 1.000000 0.000000
vn 0.000000 1.000000 0.000000
vn 0.000000 0.000000 -1.000000
vn 0.000000 0.000000 -1.000000
vn 0.000000 0.000000 -1.000000
vn 0.000000 0.000000 -1.000000
vn 0.000000 0.000000 -1.000000
vn 0.000000 0.000000 -1.000000
vn 0.000000 0.000000 -1.000000
vn 0.000000 0.000000 -1.000000
vn 0.000000 0.000000 -1.000000
vn 0.000000 0.000000 -1.000000
vn 0.000000 0.000000 -1.000000
vn 0.000000 0.000000 -1.000000
vn 0.000000 0.000000 -1.000000
vn 0.000000 -1.000000 0.000000
vn -0.000001 -1.000000 0.000000
vn -0.000001 -1.000000 -0.000001
vn 0.000000 -1.000000 -0.000001
vn -0.000001 -1.000000 0.000000
vn -0.000001 -1.000000 0.000000
vn 0.000000 -1.000000 0.000000
vn 0.000000 -1.000000 0.000000
vn 0.000000 -1.000000 0.000000
vn 0.000000 -1.000000 0.000000
vn 0.000000 -1.000000 0.000000
vn 0.000000 -1.000000 0.000000
vn 0.000000 -1.000000 0.000000
vn 0.000000 -1.000000 0.000000
vn 0.000000 -1.000000 0.000000
vn 0.000000 -1.000000 0.000000
vn 0.000001 -1.000000 0.000000
vn 0.000001 -1.000000 0.000000
vn 0.000001 -1.000000 0.000000
vn 0.000001 -1.000000 -0.000001
vn 0.000000 -1.000000 0.000000
vn 0.000000 -1.000000 -0.000001
vn 0.000000 -1.000000 -0.000001
vn 0.000000 -1.000000 -0.000001
vn 0.000000 -1.000000 -0.000001
vn 0.000000 -1.000000 -0.000001
vn 0.000000 -1.000000 0.000000
vn 0.000000 -1.000000 0.000000
vn 0.000000 -1.000000 0.000000
vn 0.000000 -1.000000 0.000000
vn 0.000000 -1.000000 0.000000
vn 0.000000 -1.000000 0.000000
vn 0.000000 -1.000000 0.000000
vn 0.000000 -1.000000 0.000000
vn 0.000000 -1.000000 0.000000
vn 0.000000 -1.000000 0.000000
vn 0.000000 -1.000000 0.000000
vn 0.000000 -1.000000 0.000000
vn 0.000000 -1.000000 0.000000
vn 0.000000 -1.000000 0.000000
vn 0.000000 -1.000000 0.000000
vn 0.000000 -1.000000 0.000000
vn 0.000000 -1.000000 0.000000
vn 0.000000 -1.000000 0.000000
vn 0.000000 -1.000000 0.000000
vn 0.000000 -1.000000 0.000000
vn 0.000000 -1.000000 0.000001
vn 0.000000 -1.000000 0.000001
vn 0.000000 -1.000000 0.000001
vn 0.000000 -1.000000 0.000001
vn -0.000001 -1.000000 0.000001
vn 0.000000 -1.000000 0.000001
vn 0.000000 -1.000000 0.000001
vn 0.000001 -1.000000 0.000001
vn -0.000001 -1.000000 0.000000
vn 0.000000 -1.000000 0.000000
vn -0.000001 -1.000000 0.000000
vn -0.000001 -1.000000 0.000000
vn 0.000000 -1.000000 0.000000
vn 0.000000 -1.000000 0.000000
vn 0.000000 -1.000000 0.000000
vn 0.000000 -1.000000 0.000000
vn 0.000000 -1.000000 0.000000
vn 0.000000 -1.000000 0.000000
vn 0.000000 -1.000000 0.000000
vn 0.000000 -1.000000 0.000000
vn 0.000000 -1.000000 0.000000
vn 0.000000 -1.000000 0.000000
vn 0.000001 -1.000000 0.000000
vn 0.000001 -1.000000 0.000000
vn 0.000001 -1.000000 0.000000
vn 0.000000 -1.000000 0.000000
vn 1.000000 0.000000 0.000000
vn 1.000000 0.000000 0.000000
vn 1.000000 0.000000 0.000000
vn 1.000000 0.000000 0.000000
vn 1.000000 0.000000 0.000000
vn 1.000000 0.000000 0.000000
vn 1.000000 0.000000 0.000000
vn 1.000000 0.000000 0.000000
vn 1.000000 0.000000 0.000000
vn 1.000000 0.000000 0.000000
vn 1.000000 0.000000 0.000000
vn 1.000000 0.000000 0.000000
vn 1.000000 0.000000 0.000000
vn -1.000000 0.000000 0.000000
vn -1.000000 0.000000 0.000000
vn -1.000000 0.000000 0.000000
vn -1.000000 0.000000 0.000000
vn -1.000000 0.000000 0.000000
vn -1.000000 0.000000 0.000000
vn -1.000000 0.000000 0.000000
vn -1.000000 0.000000 0.000000
vn -1.000000 0.000000 0.000000
vn -1.000000 0.000000 0.000000
vn -1.000000 0.000000 0.000000
vn -1.000000 0.000000 0.000000
vn -1.000000 0.000000 0.000000
vn -1.000000 0.000000 0.000000
vn -1.000000 0.000000 0.000000
vn -1.000000 0.000000 0.000000
vn -1.000000 0.000000 0.000000
vn -1.000000 0.000000 0.000000
vn -1.000000 0.000000 0.000000
vn -1.000000 0.000000 0.000000
vn -1.000000 0.000000 0.000000
vn -1.000000 0.000000 0.000000
vn -1.000000 0.000000 0.000000
vn -1.000000 0.000000 0.000000
vn 1.000000 0.000000 0.000000
vn 1.000000 0.000000 0.000000
vn 1.000000 0.000000 0.000000
vn 1.000000 0.000000 0.000000
vn 1.000000 0.000000 0.000000
vn 1.000000 0.000000 0.000000
vn 1.000000 0.000000 0.000000
vn 1.000000 0.000000 0.000000
vn 1.000000 0.000000 0.000000
vn 1.000000 0.000000 0.000000
vn 1.000000 0.000000 0.000000
vn 0.000000 0.000000 1.000000
vn 0.000000 0.000000 1.000000
vn 0.000000 0.000000 1.000000
vn 0.000000 0.000000 1.000000
vn 0.000000 0.000000 -1.000000
vn 0.000000 0.000000 -1.000000
vn 0.000000 0.000000 -1.000000
vn 0.000000 0.000000 -1.000000
vn 0.000000 0.000000 1.000000
vn 0.000000 0.000000 1.000000
vn 0.000000 0.000000 1.000000
vn 0.000000 0.000000 1.000000
vn 0.000000 1.000000 0.000000
vn 0.000000 1.000000 0.000000
vn 0.000000 1.000000 0.000000
vn 0.000000 1.000000 0.000000
vn 0.000000 0.000000 -1.000000
vn 0.000000 0.000000 -1.000000
vn 0.000000 0.000000 -1.000000
vn 0.000000 0.000000 -1.000000
vn 0.000000 -1.000000 0.000000
vn 0.000000 -1.000000 0.000000
vn 0.000000 -1.000000 0.000000
vn 0.000000 -1.000000 0.000000
vn 1.000000 0.000000 0.000000
vn 1.000000 0.000000 0.000000
vn 1.000000 0.000000 0.000000
vn 1.000000 0.000000 0.000000
vn -1.000000 0.000000 0.000000
vn -1.000000 0.000000 0.000000
vn -1.000000 0.000000 0.000000
vn -1.000000 0.000000 0.000000
vn 0.000000 0.000000 1.000000
vn 0.000000 0.000000 1.000000
vn 0.000000 0.000000 1.000000
vn 0.000000 0.000000 1.000000
vn 0.000000 1.000000 0.000000
vn 0.000000 1.000000 0.000000
vn 0.000000 1.000000 0.000000
vn 0.000000 1.000000 0.000000
vn 0.000000 0.000000 -1.000000
vn 0.000000 0.000000 -1.000000
vn 0.000000 0.000000 -1.000000
vn 0.000000 0.000000 -1.000000
vn 0.000000 -1.000000 0.000000
vn 0.000000 -1.000000 0.000000
vn 0.000000 -1.000000 0.000000
vn 0.000000 -1.000000 0.000000
vn 1.000000 0.000000 0.000000
vn 1.000000 0.000000 0.000000
vn 1.000000 0.000000 0.000000
vn 1.000000 0.000000 0.000000
vn -1.000000 0.000000 0.000000
vn -1.000000 0.000000 0.000000
vn -1.000000 0.000000 0.000000
vn -1.000000 0.000000 0.000000
vn 0.000000 0.000000 1.000000
vn 0.000000 0.000000 1.000000
vn 0.000000 0.000000 1.000000
vn 0.000000 0.000000 1.000000
vn 0.000000 1.000000 0.000000
vn 0.000000 1.000000 0.000000
vn 0.000000 1.000000 0.000000
vn 0.000000 1.000000 0.000000
vn 0.000000 0.000000 -1.000000
vn 0.000000 0.000000 -1.000000
vn 0.000000 0.000000 -1.000000
vn 0.000000 0.000000 -1.000000
vn 0.000000 -1.000000 0.000000
vn 0.000000 -1.000000 0.000000
vn 0.000000 -1.000000 0.000000
vn 0.000000 -1.000000 0.000000
vn 1.000000 0.000000 0.000000
vn 1.000000 0.000000 0.000000
vn 1.000000 0.000000 0.000000
vn 1.000000 0.000000 0.000000
vn -1.000000 0.000000 0.000000
vn -1.000000 0.000000 0.000000
vn -1.000000 0.000000 0.000000
vn -1.000000 0.000000 0.000000
vn 0.000000 0.000000 1.000000
vn 0.000000 0.000000 1.000000
vn 0.000000 0.000000 1.000000
vn 0.000000 0.000000 1.000000
vn 0.000000 1.000000 0.000000
vn 0.000000 1.000000 0.000000
vn 0.000000 1.000000 0.000000
vn 0.000000 1.000000 0.000000
vn 0.000000 0.000000 -1.000000
vn 0.000000 0.000000 -1.000000
vn 0.000000 0.000000 -1.000000
vn 0.000000 0.000000 -1.000000
vn 0.000000 -1.000000 0.000000
vn 0.000000 -1.000000 0.000000
vn 0.000000 -1.000000 0.000000
vn 0.000000 -1.000000 0.000000
vn 1.000000 0.000000 0.000000
vn 1.000000 0.000000 0.000000
vn 1.000000 0.000000 0.000000
vn 1.000000 0.000000 0.000000
vn -1.000000 0.000000 0.000000
vn -1.000000 0.000000 0.000000
vn -1.000000 0.000000 0.000000
vn -1.000000 0.000000 0.000000
s off
g pCube4
usemtl lambert2SG
f 1/187/1 2/2/2 4/190/3 3/192/4
f 3/3/5 4/191/6 6/6/7 5/189/8
f 5/5/9 6/188/10 8/8/11 7/186/12
f 7/7/13 8/184/14 2/10/15 1/9/16
f 2/185/17 8/11/18 6/12/19 4/4/20
f 7/13/21 1/1/22 3/193/23 5/14/24
f 21/15/25 20/16/26 9/17/27 10/18/28 11/19/29 12/20/30 13/21/31 14/22/32 15/23/33 16/24/34 17/25/35 18/26/36 19/27/37
f 26/28/38 20/16/39 21/15/40 27/29/41 25/30/42 23/31/43 22/32/44 24/33/45
f 37/34/46 36/35/47 35/36/48 34/37/49 33/38/50 32/39/51 31/40/52 30/41/53 29/42/54 28/43/55 26/28/56 27/29/57 38/44/58
s 1
f 28/43/59 29/42/60 40/45/61 39/46/62
f 29/42/60 30/41/63 41/47/64 40/45/61
f 30/41/63 31/40/65 42/48/66 41/47/64
f 31/40/65 32/39/67 43/49/68 42/48/66
f 32/39/67 33/38/69 44/50/70 43/49/68
f 33/38/69 34/37/71 45/51/72 44/50/70
f 34/37/71 35/36/73 46/52/74 45/51/72
f 35/36/73 36/35/75 47/53/76 46/52/74
f 36/35/75 37/34/77 48/54/78 47/53/76
f 37/34/77 38/44/79 49/55/80 48/54/78
f 39/46/62 40/45/61 51/56/81 50/57/82
f 48/54/78 49/55/80 53/58/83 52/59/84
f 50/57/82 51/56/81 55/60/85 54/61/86
f 52/59/84 53/58/83 57/62/87 56/63/88
f 54/61/86 55/60/85 59/64/89 58/65/90
f 56/63/88 57/62/87 61/66/91 60/67/92
f 58/65/90 59/64/89 63/68/93 62/69/94
f 60/67/92 61/66/91 65/70/95 64/71/96
f 62/69/94 63/68/93 67/72/97 66/73/98
f 64/71/96 65/70/95 69/74/99 68/75/100
f 66/73/98 67/72/97 71/76/101 70/77/102
f 68/75/100 69/74/99 73/78/103 72/79/104
f 70/77/102 71/76/101 75/80/105 74/81/106
f 72/79/104 73/78/103 77/82/107 76/83/108
f 74/81/106 75/80/105 79/84/109 78/85/110
f 76/83/108 77/82/107 88/86/111 87/87/112
f 78/85/110 79/84/109 10/88/113 9/89/114
f 79/84/109 80/90/115 11/91/116 10/88/113
f 80/90/115 81/92/117 12/93/118 11/91/116
f 81/92/117 82/94/119 13/95/120 12/93/118
f 82/94/119 83/96/121 14/97/122 13/95/120
f 83/96/121 84/98/123 15/99/124 14/97/122
f 84/98/123 85/100/125 16/101/126 15/99/124
f 85/100/125 86/102/127 17/103/128 16/101/126
f 86/102/127 87/87/112 18/104/129 17/103/128
f 87/87/112 88/86/111 19/105/130 18/104/129
s off
f 27/106/131 21/15/132 19/27/133 88/107/134 77/108/135 73/109/136 69/110/137 65/111/138 61/112/139 57/113/140 53/114/141 49/115/142 38/116/143
f 20/16/144 26/117/145 28/118/146 39/119/147 50/120/148 54/121/149 58/122/150 62/123/151 66/124/152 70/125/153 74/126/154 78/127/155 9/17/156
f 52/59/157 56/63/158 60/67/159 64/71/160 68/75/161 72/79/162 76/83/163 87/87/164 23/31/165 25/30/166 48/54/167
f 75/80/168 71/76/169 67/72/170 63/68/171 59/64/172 55/60/173 51/56/174 40/45/175 24/33/176 22/32/177 79/84/178
f 48/54/179 25/30/180 24/33/181 40/45/182
f 23/31/183 87/87/184 79/84/185 22/32/186
f 89/128/187 90/129/188 92/130/189 91/131/190
f 91/131/191 92/130/192 94/132/193 93/133/194
f 93/133/195 94/132/196 96/134/197 95/135/198
f 95/135/199 96/134/200 90/136/201 89/137/202
f 90/129/203 96/138/204 94/139/205 92/130/206
f 95/140/207 89/128/208 91/131/209 93/141/210
f 97/142/211 98/143/212 100/144/213 99/145/214
f 99/145/215 100/144/216 102/146/217 101/147/218
f 101/147/219 102/146/220 104/148/221 103/149/222
f 103/149/223 104/148/224 98/150/225 97/151/226
f 98/143/227 104/152/228 102/153/229 100/144/230
f 103/154/231 97/142/232 99/145/233 101/155/234
f 105/156/235 106/157/236 108/158/237 107/159/238
f 107/159/239 108/158/240 110/160/241 109/161/242
f 109/161/243 110/160/244 112/162/245 111/163/246
f 111/163/247 112/162/248 106/164/249 105/165/250
f 106/157/251 112/166/252 110/167/253 108/158/254
f 111/168/255 105/156/256 107/159/257 109/169/258
f 113/170/259 114/171/260 116/172/261 115/173/262
f 115/173/263 116/172/264 118/174/265 117/175/266
f 117/175/267 118/174/268 120/176/269 119/177/270
f 119/177/271 120/176/272 114/178/273 113/179/274
f 114/171/275 120/180/276 118/181/277 116/172/278
f 119/182/279 113/170/280 115/173/281 117/183/282
