# This file uses centimeters as units for non-parametric coordinates.

mtllib display_case.mtl
g default
v -1.500000 0.000000 1.500000
v 1.500000 0.000000 1.500000
v -1.500000 2.000000 1.500000
v 1.500000 2.000000 1.500000
v -1.500000 2.000000 -1.500000
v 1.500000 2.000000 -1.500000
v -1.500000 0.000000 -1.500000
v 1.500000 0.000000 -1.500000
v 1.200000 2.000106 -1.200000
v 1.500000 2.000106 -1.200000
v 1.200000 2.875406 -1.200000
v 1.500000 2.875406 -1.200000
v 1.200000 2.875406 -1.500000
v 1.500000 2.875406 -1.500000
v 1.200000 2.000106 -1.500000
v 1.500000 2.000106 -1.500000
v -1.500000 2.000106 1.500000
v -1.200000 2.000106 1.500000
v -1.500000 2.875406 1.500000
v -1.200000 2.875406 1.500000
v -1.500000 2.875406 1.200000
v -1.200000 2.875406 1.200000
v -1.500000 2.000106 1.200000
v -1.200000 2.000106 1.200000
v -1.500000 2.000106 -1.200000
v -1.200000 2.000106 -1.200000
v -1.500000 2.875406 -1.200000
v -1.200000 2.875406 -1.200000
v -1.500000 2.875406 -1.500000
v -1.200000 2.875406 -1.500000
v -1.500000 2.000106 -1.500000
v -1.200000 2.000106 -1.500000
v 1.200000 2.000106 1.500000
v 1.500000 2.000106 1.500000
v 1.200000 2.875406 1.500000
v 1.500000 2.875406 1.500000
v 1.200000 2.875406 1.200000
v 1.500000 2.875406 1.200000
v 1.200000 2.000106 1.200000
v 1.500000 2.000106 1.200000
v -1.500000 2.850000 1.500000
v -1.200000 2.850000 1.500000
v -1.500000 3.150000 1.500000
v -1.200000 3.150000 1.500000
v -1.500000 3.150000 -1.500000
v -1.200000 3.150000 -1.500000
v -1.500000 2.850000 -1.500000
v -1.200000 2.850000 -1.500000
v 1.200000 2.850000 1.500000
v 1.500000 2.850000 1.500000
v 1.200000 3.150000 1.500000
v 1.500000 3.150000 1.500000
v 1.200000 3.150000 -1.500000
v 1.500000 3.150000 -1.500000
v 1.200000 2.850000 -1.500000
v 1.500000 2.850000 -1.500000
v 1.500000 2.850000 1.500000
v 1.500000 2.850000 1.200000
v 1.500000 3.150000 1.500000
v 1.500000 3.150000 1.200000
v -1.500000 3.150000 1.500000
v -1.500000 3.150000 1.200000
v -1.500000 2.850000 1.500000
v -1.500000 2.850000 1.200000
v -1.500000 2.850000 -1.500000
v -1.500000 2.850000 -1.200000
v -1.500000 3.150000 -1.500000
v -1.500000 3.150000 -1.200000
v 1.500000 3.150000 -1.500000
v 1.500000 3.150000 -1.200000
v 1.500000 2.850000 -1.500000
v 1.500000 2.850000 -1.200000
vt 0.135414 -0.575753
vt 0.869225 -0.575753
vt 0.869225 -0.085300
vt 0.135414 -0.085300
vt 0.383483 0.598173
vt 0.598843 0.598173
vt 0.598843 0.809081
vt 0.383483 0.809081
vt 0.863828 -0.070377
vt 0.126064 -0.092011
vt 0.140811 -0.594892
vt 0.878574 -0.573258
vt 0.130326 -0.575713
vt 0.874312 -0.575713
vt 0.874312 -0.091664
vt 0.130326 -0.091664
vt 0.122619 -0.585146
vt 0.879912 -0.585146
vt 0.879912 -0.088465
vt 0.122619 -0.088465
vt 0.132198 -0.583975
vt 0.874548 -0.583975
vt 0.874548 -0.089636
vt 0.132198 -0.089636
vt 0.561018 0.086084
vt 0.608739 0.086084
vt 0.608739 0.133805
vt 0.561018 0.133805
vt 0.608739 0.181526
vt 0.561018 0.181526
vt 0.608739 0.229247
vt 0.561018 0.229247
vt 0.608739 0.276968
vt 0.561018 0.276968
vt 0.656460 0.086084
vt 0.656460 0.133805
vt 0.513297 0.086084
vt 0.513297 0.133805
vt 0.561141 0.085227
vt 0.608862 0.085227
vt 0.608862 0.132948
vt 0.561141 0.132948
vt 0.608862 0.180668
vt 0.561141 0.180668
vt 0.608862 0.228389
vt 0.561141 0.228389
vt 0.608862 0.276110
vt 0.561141 0.276110
vt 0.656583 0.085227
vt 0.656583 0.132948
vt 0.513421 0.085227
vt 0.513421 0.132948
vt 0.111550 0.068333
vt 0.161535 0.068333
vt 0.161535 0.118318
vt 0.111550 0.118318
vt 0.161535 0.168303
vt 0.111550 0.168303
vt 0.161535 0.218289
vt 0.111550 0.218289
vt 0.161535 0.268274
vt 0.111550 0.268274
vt 0.211521 0.068333
vt 0.211521 0.118318
vt 0.061565 0.068333
vt 0.061565 0.118318
vt 0.561617 0.085174
vt 0.609338 0.085174
vt 0.609338 0.132894
vt 0.561617 0.132894
vt 0.609338 0.180615
vt 0.561617 0.180615
vt 0.609338 0.228336
vt 0.561617 0.228336
vt 0.609338 0.276057
vt 0.561617 0.276057
vt 0.657059 0.085174
vt 0.657059 0.132894
vt 0.513896 0.085174
vt 0.513896 0.132894
vt 0.333579 0.019551
vt 0.388567 0.019551
vt 0.388567 0.074540
vt 0.333579 0.074540
vt 0.388567 0.129528
vt 0.333579 0.129528
vt 0.388567 0.184517
vt 0.333579 0.184517
vt 0.388567 0.239506
vt 0.333579 0.239506
vt 0.443556 0.019551
vt 0.443556 0.074540
vt 0.278590 0.019551
vt 0.278590 0.074540
vt 0.333579 0.019551
vt 0.388567 0.019551
vt 0.388567 0.074540
vt 0.333579 0.074540
vt 0.388567 0.129528
vt 0.333579 0.129528
vt 0.388567 0.184517
vt 0.333579 0.184517
vt 0.388567 0.239506
vt 0.333579 0.239506
vt 0.443556 0.019551
vt 0.443556 0.074540
vt 0.278590 0.019551
vt 0.278590 0.074540
vt 0.333579 0.019551
vt 0.388567 0.019551
vt 0.388567 0.074540
vt 0.333579 0.074540
vt 0.388567 0.129528
vt 0.333579 0.129528
vt 0.388567 0.184517
vt 0.333579 0.184517
vt 0.388567 0.239506
vt 0.333579 0.239506
vt 0.443556 0.019551
vt 0.443556 0.074540
vt 0.278590 0.019551
vt 0.278590 0.074540
vt 0.333579 0.019551
vt 0.388567 0.019551
vt 0.388567 0.074540
vt 0.333579 0.074540
vt 0.388567 0.129528
vt 0.333579 0.129528
vt 0.388567 0.184517
vt 0.333579 0.184517
vt 0.388567 0.239506
vt 0.333579 0.239506
vt 0.443556 0.019551
vt 0.443556 0.074540
vt 0.278590 0.019551
vt 0.278590 0.074540
vn 0.000000 0.000000 1.000000
vn 0.000000 0.000000 1.000000
vn 0.000000 0.000000 1.000000
vn 0.000000 0.000000 1.000000
vn 0.000000 1.000000 0.000000
vn 0.000000 1.000000 0.000000
vn 0.000000 1.000000 0.000000
vn 0.000000 1.000000 0.000000
vn 0.000000 0.000000 -1.000000
vn 0.000000 0.000000 -1.000000
vn 0.000000 0.000000 -1.000000
vn 0.000000 0.000000 -1.000000
vn 0.000000 -1.000000 0.000000
vn 0.000000 -1.000000 0.000000
vn 0.000000 -1.000000 0.000000
vn 0.000000 -1.000000 0.000000
vn 1.000000 0.000000 0.000000
vn 1.000000 0.000000 0.000000
vn 1.000000 0.000000 0.000000
vn 1.000000 0.000000 0.000000
vn -1.000000 0.000000 0.000000
vn -1.000000 0.000000 0.000000
vn -1.000000 0.000000 0.000000
vn -1.000000 0.000000 0.000000
vn 0.000000 0.000000 1.000000
vn 0.000000 0.000000 1.000000
vn 0.000000 0.000000 1.000000
vn 0.000000 0.000000 1.000000
vn 0.000000 1.000000 0.000000
vn 0.000000 1.000000 0.000000
vn 0.000000 1.000000 0.000000
vn 0.000000 1.000000 0.000000
vn 0.000000 0.000000 -1.000000
vn 0.000000 0.000000 -1.000000
vn 0.000000 0.000000 -1.000000
vn 0.000000 0.000000 -1.000000
vn 0.000000 -1.000000 0.000000
vn 0.000000 -1.000000 0.000000
vn 0.000000 -1.000000 0.000000
vn 0.000000 -1.000000 0.000000
vn 1.000000 0.000000 0.000000
vn 1.000000 0.000000 0.000000
vn 1.000000 0.000000 0.000000
vn 1.000000 0.000000 0.000000
vn -1.000000 0.000000 0.000000
vn -1.000000 0.000000 0.000000
vn -1.000000 0.000000 0.000000
vn -1.000000 0.000000 0.000000
vn 0.000000 0.000000 1.000000
vn 0.000000 0.000000 1.000000
vn 0.000000 0.000000 1.000000
vn 0.000000 0.000000 1.000000
vn 0.000000 1.000000 0.000000
vn 0.000000 1.000000 0.000000
vn 0.000000 1.000000 0.000000
vn 0.000000 1.000000 0.000000
vn 0.000000 0.000000 -1.000000
vn 0.000000 0.000000 -1.000000
vn 0.000000 0.000000 -1.000000
vn 0.000000 0.000000 -1.000000
vn 0.000000 -1.000000 0.000000
vn 0.000000 -1.000000 0.000000
vn 0.000000 -1.000000 0.000000
vn 0.000000 -1.000000 0.000000
vn 1.000000 0.000000 0.000000
vn 1.000000 0.000000 0.000000
vn 1.000000 0.000000 0.000000
vn 1.000000 0.000000 0.000000
vn -1.000000 0.000000 0.000000
vn -1.000000 0.000000 0.000000
vn -1.000000 0.000000 0.000000
vn -1.000000 0.000000 0.000000
vn 0.000000 0.000000 1.000000
vn 0.000000 0.000000 1.000000
vn 0.000000 0.000000 1.000000
vn 0.000000 0.000000 1.000000
vn 0.000000 1.000000 0.000000
vn 0.000000 1.000000 0.000000
vn 0.000000 1.000000 0.000000
vn 0.000000 1.000000 0.000000
vn 0.000000 0.000000 -1.000000
vn 0.000000 0.000000 -1.000000
vn 0.000000 0.000000 -1.000000
vn 0.000000 0.000000 -1.000000
vn 0.000000 -1.000000 0.000000
vn 0.000000 -1.000000 0.000000
vn 0.000000 -1.000000 0.000000
vn 0.000000 -1.000000 0.000000
vn 1.000000 0.000000 0.000000
vn 1.000000 0.000000 0.000000
vn 1.000000 0.000000 0.000000
vn 1.000000 0.000000 0.000000
vn -1.000000 0.000000 0.000000
vn -1.000000 0.000000 0.000000
vn -1.000000 0.000000 0.000000
vn -1.000000 0.000000 0.000000
vn 0.000000 0.000000 1.000000
vn 0.000000 0.000000 1.000000
vn 0.000000 0.000000 1.000000
vn 0.000000 0.000000 1.000000
vn 0.000000 1.000000 0.000000
vn 0.000000 1.000000 0.000000
vn 0.000000 1.000000 0.000000
vn 0.000000 1.000000 0.000000
vn 0.000000 0.000000 -1.000000
vn 0.000000 0.000000 -1.000000
vn 0.000000 0.000000 -1.000000
vn 0.000000 0.000000 -1.000000
vn 0.000000 -1.000000 0.000000
vn 0.000000 -1.000000 0.000000
vn 0.000000 -1.000000 0.000000
vn 0.000000 -1.000000 0.000000
vn 1.000000 0.000000 0.000000
vn 1.000000 0.000000 0.000000
vn 1.000000 0.000000 0.000000
vn 1.000000 0.000000 0.000000
vn -1.000000 0.000000 0.000000
vn -1.000000 0.000000 0.000000
vn -1.000000 0.000000 0.000000
vn -1.000000 0.000000 0.000000
vn 0.000000 0.000000 1.000000
vn 0.000000 0.000000 1.000000
vn 0.000000 0.000000 1.000000
vn 0.000000 0.000000 1.000000
vn 0.000000 1.000000 0.000000
vn 0.000000 1.000000 0.000000
vn 0.000000 1.000000 0.000000
vn 0.000000 1.000000 0.000000
vn 0.000000 0.000000 -1.000000
vn 0.000000 0.000000 -1.000000
vn 0.000000 0.000000 -1.000000
vn 0.000000 0.000000 -1.000000
vn 0.000000 -1.000000 0.000000
vn 0.000000 -1.000000 0.000000
vn 0.000000 -1.000000 0.000000
vn 0.000000 -1.000000 0.000000
vn 1.000000 0.000000 0.000000
vn 1.000000 0.000000 0.000000
vn 1.000000 0.000000 0.000000
vn 1.000000 0.000000 0.000000
vn -1.000000 0.000000 0.000000
vn -1.000000 0.000000 0.000000
vn -1.000000 0.000000 0.000000
vn -1.000000 0.000000 0.000000
vn 0.000000 0.000000 1.000000
vn 0.000000 0.000000 1.000000
vn 0.000000 0.000000 1.000000
vn 0.000000 0.000000 1.000000
vn 0.000000 1.000000 0.000000
vn 0.000000 1.000000 0.000000
vn 0.000000 1.000000 0.000000
vn 0.000000 1.000000 0.000000
vn 0.000000 0.000000 -1.000000
vn 0.000000 0.000000 -1.000000
vn 0.000000 0.000000 -1.000000
vn 0.000000 0.000000 -1.000000
vn 0.000000 -1.000000 0.000000
vn 0.000000 -1.000000 0.000000
vn 0.000000 -1.000000 0.000000
vn 0.000000 -1.000000 0.000000
vn 1.000000 0.000000 0.000000
vn 1.000000 0.000000 0.000000
vn 1.000000 0.000000 0.000000
vn 1.000000 0.000000 0.000000
vn -1.000000 0.000000 0.000000
vn -1.000000 0.000000 0.000000
vn -1.000000 0.000000 0.000000
vn -1.000000 0.000000 0.000000
vn 1.000000 0.000000 0.000000
vn 1.000000 0.000000 0.000000
vn 1.000000 0.000000 0.000000
vn 1.000000 0.000000 0.000000
vn 0.000000 1.000000 0.000000
vn 0.000000 1.000000 0.000000
vn 0.000000 1.000000 0.000000
vn 0.000000 1.000000 0.000000
vn -1.000000 0.000000 0.000000
vn -1.000000 0.000000 0.000000
vn -1.000000 0.000000 0.000000
vn -1.000000 0.000000 0.000000
vn 0.000000 -1.000000 0.000000
vn 0.000000 -1.000000 0.000000
vn 0.000000 -1.000000 0.000000
vn 0.000000 -1.000000 0.000000
vn 0.000000 0.000000 -1.000000
vn 0.000000 0.000000 -1.000000
vn 0.000000 0.000000 -1.000000
vn 0.000000 0.000000 -1.000000
vn 0.000000 0.000000 1.000000
vn 0.000000 0.000000 1.000000
vn 0.000000 0.000000 1.000000
vn 0.000000 0.000000 1.000000
vn -1.000000 0.000000 0.000000
vn -1.000000 0.000000 0.000000
vn -1.000000 0.000000 0.000000
vn -1.000000 0.000000 0.000000
vn 0.000000 1.000000 0.000000
vn 0.000000 1.000000 0.000000
vn 0.000000 1.000000 0.000000
vn 0.000000 1.000000 0.000000
vn 1.000000 0.000000 0.000000
vn 1.000000 0.000000 0.000000
vn 1.000000 0.000000 0.000000
vn 1.000000 0.000000 0.000000
vn 0.000000 -1.000000 0.000000
vn 0.000000 -1.000000 0.000000
vn 0.000000 -1.000000 0.000000
vn 0.000000 -1.000000 0.000000
vn 0.000000 0.000000 1.000000
vn 0.000000 0.000000 1.000000
vn 0.000000 0.000000 1.000000
vn 0.000000 0.000000 1.000000
vn 0.000000 0.000000 -1.000000
vn 0.000000 0.000000 -1.000000
vn 0.000000 0.000000 -1.000000
vn 0.000000 0.000000 -1.000000
s off
g polySurface1
usemtl lambert3SG
f 1/1/1 2/2/2 4/3/3 3/4/4
f 3/5/5 4/6/6 6/7/7 5/8/8
f 5/9/9 6/10/10 8/11/11 7/12/12
f 7/13/13 8/14/14 2/15/15 1/16/16
f 2/17/17 8/18/18 6/19/19 4/20/20
f 7/21/21 1/22/22 3/23/23 5/24/24
f 9/25/25 10/26/26 12/27/27 11/28/28
f 11/28/29 12/27/30 14/29/31 13/30/32
f 13/30/33 14/29/34 16/31/35 15/32/36
f 15/32/37 16/31/38 10/33/39 9/34/40
f 10/26/41 16/35/42 14/36/43 12/27/44
f 15/37/45 9/25/46 11/28/47 13/38/48
f 17/39/49 18/40/50 20/41/51 19/42/52
f 19/42/53 20/41/54 22/43/55 21/44/56
f 21/44/57 22/43/58 24/45/59 23/46/60
f 23/46/61 24/45/62 18/47/63 17/48/64
f 18/40/65 24/49/66 22/50/67 20/41/68
f 23/51/69 17/39/70 19/42/71 21/52/72
f 25/53/73 26/54/74 28/55/75 27/56/76
f 27/56/77 28/55/78 30/57/79 29/58/80
f 29/58/81 30/57/82 32/59/83 31/60/84
f 31/60/85 32/59/86 26/61/87 25/62/88
f 26/54/89 32/63/90 30/64/91 28/55/92
f 31/65/93 25/53/94 27/56/95 29/66/96
f 33/67/97 34/68/98 36/69/99 35/70/100
f 35/70/101 36/69/102 38/71/103 37/72/104
f 37/72/105 38/71/106 40/73/107 39/74/108
f 39/74/109 40/73/110 34/75/111 33/76/112
f 34/68/113 40/77/114 38/78/115 36/69/116
f 39/79/117 33/67/118 35/70/119 37/80/120
f 41/81/121 42/82/122 44/83/123 43/84/124
f 43/84/125 44/83/126 46/85/127 45/86/128
f 45/86/129 46/85/130 48/87/131 47/88/132
f 47/88/133 48/87/134 42/89/135 41/90/136
f 42/82/137 48/91/138 46/92/139 44/83/140
f 47/93/141 41/81/142 43/84/143 45/94/144
f 49/95/145 50/96/146 52/97/147 51/98/148
f 51/98/149 52/97/150 54/99/151 53/100/152
f 53/100/153 54/99/154 56/101/155 55/102/156
f 55/102/157 56/101/158 50/103/159 49/104/160
f 50/96/161 56/105/162 54/106/163 52/97/164
f 55/107/165 49/95/166 51/98/167 53/108/168
f 57/109/169 58/110/170 60/111/171 59/112/172
f 59/112/173 60/111/174 62/113/175 61/114/176
f 61/114/177 62/113/178 64/115/179 63/116/180
f 63/116/181 64/115/182 58/117/183 57/118/184
f 58/110/185 64/119/186 62/120/187 60/111/188
f 63/121/189 57/109/190 59/112/191 61/122/192
f 65/123/193 66/124/194 68/125/195 67/126/196
f 67/126/197 68/125/198 70/127/199 69/128/200
f 69/128/201 70/127/202 72/129/203 71/130/204
f 71/130/205 72/129/206 66/131/207 65/132/208
f 66/124/209 72/133/210 70/134/211 68/125/212
f 71/135/213 65/123/214 67/126/215 69/136/216
