# This file uses centimeters as units for non-parametric coordinates.

mtllib humanModel_bodyNhead.mtl
g default
v -1.100000 1.500000 0.500000
v 1.100000 1.500000 0.500000
v -1.100000 3.500000 0.500000
v 1.100000 3.500000 0.500000
v -1.100000 3.500000 -0.500000
v 1.100000 3.500000 -0.500000
v -1.100000 1.500000 -0.500000
v 1.100000 1.500000 -0.500000
vt 0.640884 0.436112
vt 0.733361 0.436112
vt 0.848049 0.621980
vt 0.755572 0.621980
vt 0.848049 0.725352
vt 0.755572 0.725352
vt 0.848049 0.828724
vt 0.755572 0.828724
vt 0.733361 0.849602
vt 0.640884 0.849602
vt 0.825838 0.436112
vt 0.825838 0.539485
vt 0.548407 0.436112
vt 0.548407 0.539485
vn 0.000000 0.000000 1.000000
vn 0.000000 0.000000 1.000000
vn 0.000000 0.000000 1.000000
vn 0.000000 0.000000 1.000000
vn 0.000000 1.000000 0.000000
vn 0.000000 1.000000 0.000000
vn 0.000000 1.000000 0.000000
vn 0.000000 1.000000 0.000000
vn 0.000000 0.000000 -1.000000
vn 0.000000 0.000000 -1.000000
vn 0.000000 0.000000 -1.000000
vn 0.000000 0.000000 -1.000000
vn 0.000000 -1.000000 0.000000
vn 0.000000 -1.000000 0.000000
vn 0.000000 -1.000000 0.000000
vn 0.000000 -1.000000 0.000000
vn 1.000000 0.000000 0.000000
vn 1.000000 0.000000 0.000000
vn 1.000000 0.000000 0.000000
vn 1.000000 0.000000 0.000000
vn -1.000000 0.000000 0.000000
vn -1.000000 0.000000 0.000000
vn -1.000000 0.000000 0.000000
vn -1.000000 0.000000 0.000000
s off
g humanModel_bodyNhead4:pCube2
usemtl lambert2SG
f 1/1/1 2/2/2 4/3/3 3/4/4
f 3/4/5 4/3/6 6/5/7 5/6/8
f 5/6/9 6/5/10 8/7/11 7/8/12
f 7/8/13 8/7/14 2/9/15 1/10/16
f 2/2/17 8/11/18 6/12/19 4/3/20
f 7/13/21 1/1/22 3/4/23 5/14/24
g default
v -0.600000 3.500000 0.500000
v 0.600000 3.500000 0.500000
v -0.600000 4.500000 0.500000
v 0.600000 4.500000 0.500000
v -0.600000 4.500000 -0.500000
v 0.600000 4.500000 -0.500000
v -0.600000 3.500000 -0.500000
v 0.600000 3.500000 -0.500000
vt 0.497589 0.085929
vt 0.530580 0.085929
vt 0.530580 0.118920
vt 0.497589 0.118920
vt 0.530580 0.151912
vt 0.497589 0.151912
vt 0.530580 0.184903
vt 0.497589 0.184903
vt 0.530580 0.217894
vt 0.497589 0.217894
vt 0.563571 0.085929
vt 0.563571 0.118920
vt 0.464598 0.085929
vt 0.464598 0.118920
vn 0.000000 0.000000 1.000000
vn 0.000000 0.000000 1.000000
vn 0.000000 0.000000 1.000000
vn 0.000000 0.000000 1.000000
vn 0.000000 1.000000 0.000000
vn 0.000000 1.000000 0.000000
vn 0.000000 1.000000 0.000000
vn 0.000000 1.000000 0.000000
vn 0.000000 0.000000 -1.000000
vn 0.000000 0.000000 -1.000000
vn 0.000000 0.000000 -1.000000
vn 0.000000 0.000000 -1.000000
vn 0.000000 -1.000000 0.000000
vn 0.000000 -1.000000 0.000000
vn 0.000000 -1.000000 0.000000
vn 0.000000 -1.000000 0.000000
vn 1.000000 0.000000 0.000000
vn 1.000000 0.000000 0.000000
vn 1.000000 0.000000 0.000000
vn 1.000000 0.000000 0.000000
vn -1.000000 0.000000 0.000000
vn -1.000000 0.000000 0.000000
vn -1.000000 0.000000 0.000000
vn -1.000000 0.000000 0.000000
s off
g humanModel_bodyNhead4:pCube3
usemtl lambert2SG
f 9/15/25 10/16/26 12/17/27 11/18/28
f 11/18/29 12/17/30 14/19/31 13/20/32
f 13/20/33 14/19/34 16/21/35 15/22/36
f 15/22/37 16/21/38 10/23/39 9/24/40
f 10/16/41 16/25/42 14/26/43 12/17/44
f 15/27/45 9/15/46 11/18/47 13/28/48
