# This file uses centimeters as units for non-parametric coordinates.

mtllib humanModel_leftshoulder.mtl
g default
v -0.409202 -0.634356 0.500000
v 0.390798 -0.634356 0.500000
v -0.409202 0.565644 0.500000
v 0.390798 0.565644 0.500000
v -0.409202 0.565644 -0.500000
v 0.390798 0.565644 -0.500000
v -0.409202 -0.634356 -0.500000
v 0.390798 -0.634356 -0.500000
vt 0.670307 0.382415
vt 0.785410 0.382415
vt 0.785410 0.497517
vt 0.670307 0.497517
vt 0.785410 0.612620
vt 0.670307 0.612620
vt 0.785410 0.727722
vt 0.670307 0.727722
vt 0.785410 0.842825
vt 0.670307 0.842825
vt 0.900513 0.382415
vt 0.900513 0.497517
vt 0.555205 0.382415
vt 0.555205 0.497517
vn 0.000000 0.000000 1.000000
vn 0.000000 0.000000 1.000000
vn 0.000000 0.000000 1.000000
vn 0.000000 0.000000 1.000000
vn 0.000000 1.000000 0.000000
vn 0.000000 1.000000 0.000000
vn 0.000000 1.000000 0.000000
vn 0.000000 1.000000 0.000000
vn 0.000000 0.000000 -1.000000
vn 0.000000 0.000000 -1.000000
vn 0.000000 0.000000 -1.000000
vn 0.000000 0.000000 -1.000000
vn 0.000000 -1.000000 0.000000
vn 0.000000 -1.000000 0.000000
vn 0.000000 -1.000000 0.000000
vn 0.000000 -1.000000 0.000000
vn 1.000000 0.000000 0.000000
vn 1.000000 0.000000 0.000000
vn 1.000000 0.000000 0.000000
vn 1.000000 0.000000 0.000000
vn -1.000000 0.000000 0.000000
vn -1.000000 0.000000 0.000000
vn -1.000000 0.000000 0.000000
vn -1.000000 0.000000 0.000000
s off
g humanModel_leftshoulder:pCube1
usemtl initialShadingGroup
f 1/1/1 2/2/2 4/3/3 3/4/4
f 3/4/5 4/3/6 6/5/7 5/6/8
f 5/6/9 6/5/10 8/7/11 7/8/12
f 7/8/13 8/7/14 2/9/15 1/10/16
f 2/2/17 8/11/18 6/12/19 4/3/20
f 7/13/21 1/1/22 3/4/23 5/14/24
