# This file uses centimeters as units for non-parametric coordinates.

mtllib humanModel_lefthand.mtl
g default
v -0.391578 -0.409041 0.470328
v 0.408422 -0.409041 0.470328
v -0.391578 0.290959 0.470328
v 0.408422 0.290959 0.470328
v -0.391578 0.290959 -0.529672
v 0.408422 0.290959 -0.529672
v -0.391578 -0.409041 -0.529672
v 0.408422 -0.409041 -0.529672
vt 0.661811 0.026283
vt 0.720573 0.026283
vt 0.720573 0.085045
vt 0.661811 0.085045
vt 0.720573 0.143807
vt 0.661811 0.143807
vt 0.720573 0.202569
vt 0.661811 0.202569
vt 0.720573 0.261331
vt 0.661811 0.261331
vt 0.779335 0.026283
vt 0.779335 0.085045
vt 0.603049 0.026283
vt 0.603049 0.085045
vn 0.000000 0.000000 1.000000
vn 0.000000 0.000000 1.000000
vn 0.000000 0.000000 1.000000
vn 0.000000 0.000000 1.000000
vn 0.000000 1.000000 0.000000
vn 0.000000 1.000000 0.000000
vn 0.000000 1.000000 0.000000
vn 0.000000 1.000000 0.000000
vn 0.000000 0.000000 -1.000000
vn 0.000000 0.000000 -1.000000
vn 0.000000 0.000000 -1.000000
vn 0.000000 0.000000 -1.000000
vn 0.000000 -1.000000 0.000000
vn 0.000000 -1.000000 0.000000
vn 0.000000 -1.000000 0.000000
vn 0.000000 -1.000000 0.000000
vn 1.000000 0.000000 0.000000
vn 1.000000 0.000000 0.000000
vn 1.000000 0.000000 0.000000
vn 1.000000 0.000000 0.000000
vn -1.000000 0.000000 0.000000
vn -1.000000 0.000000 0.000000
vn -1.000000 0.000000 0.000000
vn -1.000000 0.000000 0.000000
s off
g humanModel_lefthand:pCube2
usemtl lambert2SG
f 1/1/1 2/2/2 4/3/3 3/4/4
f 3/4/5 4/3/6 6/5/7 5/6/8
f 5/6/9 6/5/10 8/7/11 7/8/12
f 7/8/13 8/7/14 2/9/15 1/10/16
f 2/2/17 8/11/18 6/12/19 4/3/20
f 7/13/21 1/1/22 3/4/23 5/14/24
