# This file uses centimeters as units for non-parametric coordinates.

mtllib cameraScreen.mtl
g default
v -1.500000 0.000000 0.100000
v 1.500000 0.000000 0.100000
v -1.500000 2.500000 0.100000
v 1.500000 2.500000 0.100000
v -1.500000 2.500000 -0.100000
v 1.500000 2.500000 -0.100000
v -1.500000 0.000000 -0.100000
v 1.500000 0.000000 -0.100000
vt 0.671613 -0.821391
vt 0.988271 0.056583
vt 0.203877 -0.491533
vt 0.716266 -0.594207
vt 0.603164 -0.446881
vt 0.453877 -0.241533
vt 0.511946 -0.390820
vt 0.853164 -0.196881
vt 0.511946 -0.140820
vt 0.567502 -0.140820
vt 0.966266 -0.844207
vt 0.966266 -0.594207
vt 0.421613 -0.821391
vt 0.421613 -0.571391
vt 0.567502 -0.390820
vt 0.716266 -0.844207
vt 0.603164 -0.196881
vt -0.011087 0.056583
vt 0.853164 -0.446881
vt 0.203877 -0.241533
vt 0.988271 0.969175
vt 0.453877 -0.491533
vt -0.011087 0.969175
vt 0.671613 -0.571391
vn 0.000000 0.000000 1.000000
vn 0.000000 0.000000 1.000000
vn 0.000000 0.000000 1.000000
vn 0.000000 0.000000 1.000000
vn 0.000000 1.000000 0.000000
vn 0.000000 1.000000 0.000000
vn 0.000000 1.000000 0.000000
vn 0.000000 1.000000 0.000000
vn 0.000000 0.000000 -1.000000
vn 0.000000 0.000000 -1.000000
vn 0.000000 0.000000 -1.000000
vn 0.000000 0.000000 -1.000000
vn 0.000000 -1.000000 0.000000
vn 0.000000 -1.000000 0.000000
vn 0.000000 -1.000000 0.000000
vn 0.000000 -1.000000 0.000000
vn 1.000000 0.000000 0.000000
vn 1.000000 0.000000 0.000000
vn 1.000000 0.000000 0.000000
vn 1.000000 0.000000 0.000000
vn -1.000000 0.000000 0.000000
vn -1.000000 0.000000 0.000000
vn -1.000000 0.000000 0.000000
vn -1.000000 0.000000 0.000000
s off
g initialShadingGroup pCube2
f 1/18/1 2/2/2 4/21/3 3/23/4
f 3/3/5 4/22/6 6/6/7 5/20/8
f 5/5/9 6/19/10 8/8/11 7/17/12
f 7/7/13 8/15/14 2/10/15 1/9/16
f 2/16/17 8/11/18 6/12/19 4/4/20
f 7/13/21 1/1/22 3/24/23 5/14/24
