# This file uses centimeters as units for non-parametric coordinates.

mtllib SuperMarketDoor.mtl
g default
v -2.616710 0.323958 0.366976
v 2.616710 0.323958 0.366976
v -2.616710 10.250630 0.366976
v 2.616710 10.250630 0.366976
v -2.534473 10.340669 -0.366976
v 2.698948 10.340669 -0.366976
v -2.534473 0.413997 -0.366976
v 2.698948 0.413997 -0.366976
vt 0.301229 0.480067
vt 0.293805 0.480067
vt 0.293776 0.490033
vt 0.286351 0.490033
vt 0.293776 0.500000
vt 0.303742 0.500000
vt 0.286322 0.509967
vt 0.296289 0.509967
vt 0.286322 0.519933
vt 0.296289 0.519933
vt 0.303771 0.480067
vt 0.303771 0.490033
vt 0.291262 0.480067
vt 0.291262 0.490033
vt 0.288707 0.049164
vt 0.716852 0.049164
vt 0.716852 0.943579
vt 0.288707 0.943579
vt 0.285781 0.047104
vt 0.719195 0.047104
vt 0.719195 0.945248
vt 0.285781 0.945248
vn 0.000000 0.000000 1.000000
vn 0.000000 0.000000 1.000000
vn 0.000000 0.000000 1.000000
vn 0.000000 0.000000 1.000000
vn 0.000000 0.992559 0.121765
vn 0.000000 0.992559 0.121765
vn 0.000000 0.992559 0.121765
vn 0.000000 0.992559 0.121765
vn 0.000000 0.000000 -1.000000
vn 0.000000 0.000000 -1.000000
vn 0.000000 0.000000 -1.000000
vn 0.000000 0.000000 -1.000000
vn 0.000000 -0.992559 -0.121765
vn 0.000000 -0.992559 -0.121765
vn 0.000000 -0.992559 -0.121765
vn 0.000000 -0.992559 -0.121765
vn 0.993781 0.000000 0.111351
vn 0.993781 0.000000 0.111351
vn 0.993781 0.000000 0.111351
vn 0.993781 0.000000 0.111351
vn -0.993781 0.000000 -0.111351
vn -0.993781 0.000000 -0.111351
vn -0.993781 0.000000 -0.111351
vn -0.993781 0.000000 -0.111351
s off
g pCube1
usemtl lambert2SG
f 1/15/1 2/16/2 4/17/3 3/18/4
f 3/3/5 4/4/6 6/6/7 5/5/8
f 5/19/9 6/20/10 8/21/11 7/22/12
f 7/7/13 8/8/14 2/10/15 1/9/16
f 2/2/17 8/11/18 6/12/19 4/4/20
f 7/13/21 1/1/22 3/3/23 5/14/24
