# This file uses centimeters as units for non-parametric coordinates.

mtllib box-3.mtl
g default
v -0.211942 0.002474 0.175218
v 0.211942 0.002474 0.175218
v -0.211942 0.358350 0.175218
v 0.211942 0.358350 0.175218
v -0.211942 0.358350 -0.175218
v 0.211942 0.358350 -0.175218
v -0.211942 0.002474 -0.175218
v 0.211942 0.002474 -0.175218
vt 0.230346 0.166181
vt 0.784600 0.443307
vt 0.230347 0.443307
vt 0.784600 0.581871
vt 0.230346 0.581871
vt 0.784600 0.858998
vt 0.230346 0.858998
vt 0.230346 0.027617
vt 0.784600 0.166181
vt 0.923163 0.581871
vt 0.091783 0.443307
vt 0.784600 0.027617
vt 0.923163 0.858998
vt 0.091783 0.166181
vn 0.000000 0.000000 1.000000
vn 0.000000 0.000000 1.000000
vn 0.000000 0.000000 1.000000
vn 0.000000 1.000000 0.000000
vn 0.000000 1.000000 0.000000
vn 0.000000 1.000000 0.000000
vn 0.000000 0.000000 -1.000000
vn 0.000000 0.000000 -1.000000
vn 0.000000 0.000000 -1.000000
vn 0.000000 -1.000000 0.000000
vn 0.000000 -1.000000 0.000000
vn 0.000000 -1.000000 0.000000
vn 1.000000 0.000000 0.000000
vn 1.000000 0.000000 0.000000
vn 1.000000 0.000000 0.000000
vn -1.000000 0.000000 0.000000
vn -1.000000 0.000000 0.000000
vn -1.000000 0.000000 0.000000
vn 0.000000 0.000000 1.000000
vn 0.000000 0.000000 1.000000
vn 0.000000 0.000000 1.000000
vn 0.000000 1.000000 0.000000
vn 0.000000 1.000000 0.000000
vn 0.000000 1.000000 0.000000
vn 0.000000 0.000000 -1.000000
vn 0.000000 0.000000 -1.000000
vn 0.000000 0.000000 -1.000000
vn 0.000000 -1.000000 0.000000
vn 0.000000 -1.000000 0.000000
vn 0.000000 -1.000000 0.000000
vn 1.000000 0.000000 0.000000
vn 1.000000 0.000000 0.000000
vn 1.000000 0.000000 0.000000
vn -1.000000 0.000000 0.000000
vn -1.000000 0.000000 0.000000
vn -1.000000 0.000000 0.000000
s off
g box_3:pCube1
usemtl initialShadingGroup
f 1/1/1 4/2/2 3/3/3
f 3/3/4 6/4/5 5/5/6
f 5/5/7 8/6/8 7/7/9
f 7/8/10 2/9/11 1/1/12
f 4/10/13 8/6/14 6/4/15
f 5/11/16 1/1/17 3/3/18
f 1/1/19 2/9/20 4/2/21
f 3/3/22 4/2/23 6/4/24
f 5/5/25 6/4/26 8/6/27
f 7/8/28 8/12/29 2/9/30
f 2/13/31 8/6/32 4/10/33
f 7/14/34 1/1/35 5/11/36
