# This file uses centimeters as units for non-parametric coordinates.

mtllib box-10.mtl
g default
v -0.151871 0.015901 -0.373461
v -0.148193 0.017098 0.376529
v -0.151803 1.015900 -0.375058
v -0.148125 1.017097 0.374932
v 0.148193 1.015877 -0.376529
v 0.151871 1.017074 0.373461
v 0.148125 0.015878 -0.374932
v 0.151803 0.017076 0.375058
vt 0.159991 0.408159
vt 0.512175 0.404720
vt 0.150092 0.855193
vt 0.512634 0.854598
vt 0.992094 0.020093
vt 0.516876 0.998253
vt 0.512450 0.406488
vt 0.537133 0.383934
vt 0.512450 0.262407
vt 0.155237 0.262408
vt 0.645034 0.406891
vt 0.645034 0.854598
vt 0.015370 0.408159
vt 0.015370 0.854247
vt 0.512634 0.406891
vt 0.512175 0.853198
vt 0.516876 0.855193
vt 0.146463 0.404720
vt 0.146463 0.853198
vt 0.159991 0.854247
vt 0.992094 0.383934
vt 0.155237 0.406488
vt 0.150092 0.998253
vt 0.537133 0.020093
vn -0.999988 0.000076 0.004903
vn -0.999988 0.000076 0.004903
vn -0.999988 0.000076 0.004903
vn -0.999988 0.000076 0.004903
vn 0.000068 0.999999 -0.001597
vn 0.000068 0.999999 -0.001597
vn 0.000068 0.999999 -0.001597
vn 0.000068 0.999999 -0.001597
vn 0.999988 -0.000076 -0.004903
vn 0.999988 -0.000076 -0.004903
vn 0.999988 -0.000076 -0.004903
vn 0.999988 -0.000076 -0.004903
vn -0.000068 -0.999999 0.001597
vn -0.000068 -0.999999 0.001597
vn -0.000068 -0.999999 0.001597
vn -0.000068 -0.999999 0.001597
vn 0.004903 0.001597 0.999987
vn 0.004903 0.001597 0.999987
vn 0.004903 0.001597 0.999987
vn 0.004903 0.001597 0.999987
vn -0.004903 -0.001597 -0.999987
vn -0.004903 -0.001597 -0.999987
vn -0.004903 -0.001597 -0.999987
vn -0.004903 -0.001597 -0.999987
s off
g pCube2
usemtl lambert9SG
f 1/18/1 2/2/2 4/16/3 3/19/4
f 3/3/5 4/17/6 6/6/7 5/23/8
f 5/5/9 6/21/10 8/8/11 7/24/12
f 7/7/13 8/22/14 2/10/15 1/9/16
f 2/15/17 8/11/18 6/12/19 4/4/20
f 7/13/21 1/1/22 3/20/23 5/14/24
