# This file uses centimeters as units for non-parametric coordinates.

mtllib box-6.mtl
g default
v -0.586886 -0.717038 0.239013
v 0.586886 -0.717038 0.239013
v -0.586886 0.717038 0.239013
v 0.586886 0.717038 0.239013
v -0.586886 0.717038 -0.239013
v 0.586886 0.717038 -0.239013
v -0.586886 -0.717038 -0.239013
v 0.586886 -0.717038 -0.239013
vt 0.825871 0.151720
vt 0.156421 0.151720
vt 0.840893 0.159532
vt 0.008025 0.153106
vt 0.992967 0.159532
vt 0.142535 0.153106
vt 0.163712 0.853170
vt 0.829453 0.853170
vt 0.838766 0.844959
vt 0.154121 0.844959
vt 0.154121 0.165351
vt 0.838766 0.165351
vt 0.156421 0.021907
vt 0.825871 0.021907
vt 0.142535 0.850706
vt 0.992967 0.849542
vt 0.150130 0.165913
vt 0.839135 0.165913
vt 0.839135 0.850190
vt 0.150130 0.850190
vt 0.829453 0.987526
vt 0.163712 0.987526
vt 0.840893 0.849542
vt 0.008025 0.850706
vn 0.000000 0.000000 1.000000
vn 0.000000 0.000000 1.000000
vn 0.000000 0.000000 1.000000
vn 0.000000 0.000000 1.000000
vn 0.000000 1.000000 0.000000
vn 0.000000 1.000000 0.000000
vn 0.000000 1.000000 0.000000
vn 0.000000 1.000000 0.000000
vn 0.000000 0.000000 -1.000000
vn 0.000000 0.000000 -1.000000
vn 0.000000 0.000000 -1.000000
vn 0.000000 0.000000 -1.000000
vn 0.000000 -1.000000 0.000000
vn 0.000000 -1.000000 0.000000
vn 0.000000 -1.000000 0.000000
vn 0.000000 -1.000000 0.000000
vn 1.000000 0.000000 0.000000
vn 1.000000 0.000000 0.000000
vn 1.000000 0.000000 0.000000
vn 1.000000 0.000000 0.000000
vn -1.000000 0.000000 0.000000
vn -1.000000 0.000000 0.000000
vn -1.000000 0.000000 0.000000
vn -1.000000 0.000000 0.000000
s off
g pCube1
usemtl lambert3SG
f 1/17/1 2/18/2 4/19/3 3/20/4
f 3/7/5 4/8/6 6/21/7 5/22/8
f 5/9/9 6/10/10 8/11/11 7/12/12
f 7/1/13 8/2/14 2/13/15 1/14/16
f 2/3/17 8/5/18 6/16/19 4/23/20
f 7/4/21 1/6/22 3/15/23 5/24/24
