# This file uses centimeters as units for non-parametric coordinates.

mtllib box-1.mtl
g default
v -0.434665 0.000576 0.815307
v 0.434665 0.000576 0.815307
v -0.434665 1.913424 0.815307
v 0.434665 1.913424 0.815307
v -0.434665 1.913424 -0.815307
v 0.434665 1.913424 -0.815307
v -0.434665 0.000576 -0.815307
v 0.434665 0.000576 -0.815307
vt 0.498978 0.174109
vt 0.665525 0.177391
vt 0.926720 0.846851
vt 0.665019 0.847462
vt 0.175881 0.845842
vt 0.684886 0.998923
vt 0.266803 0.089837
vt 0.001290 0.175130
vt 0.313511 0.090025
vt 0.313359 0.063330
vt 0.999086 0.176323
vt 0.999086 0.847462
vt 0.168387 0.174109
vt 0.168387 0.850307
vt 0.266651 0.063142
vt 0.665019 0.176323
vt 0.177119 0.175455
vt 0.493891 0.177391
vt 0.000052 0.845517
vt 0.685031 0.846716
vt 0.665525 0.845441
vt 0.926575 0.999058
vt 0.493891 0.845441
vt 0.498978 0.850307
vn 0.000000 0.000000 1.000000
vn 0.000000 0.000000 1.000000
vn 0.000000 0.000000 1.000000
vn 0.000000 0.000000 1.000000
vn 0.000000 1.000000 0.000000
vn 0.000000 1.000000 0.000000
vn 0.000000 1.000000 0.000000
vn 0.000000 1.000000 0.000000
vn 0.000000 0.000000 -1.000000
vn 0.000000 0.000000 -1.000000
vn 0.000000 0.000000 -1.000000
vn 0.000000 0.000000 -1.000000
vn 0.000000 -1.000000 0.000000
vn 0.000000 -1.000000 0.000000
vn 0.000000 -1.000000 0.000000
vn 0.000000 -1.000000 0.000000
vn 1.000000 0.000000 0.000000
vn 1.000000 0.000000 0.000000
vn 1.000000 0.000000 0.000000
vn 1.000000 0.000000 0.000000
vn -1.000000 0.000000 0.000000
vn -1.000000 0.000000 0.000000
vn -1.000000 0.000000 0.000000
vn -1.000000 0.000000 0.000000
s off
g pCube1
usemtl lambert2SG
f 1/18/1 2/2/2 4/21/3 3/23/4
f 3/3/5 4/22/6 6/6/7 5/20/8
f 5/5/9 6/19/10 8/8/11 7/17/12
f 7/7/13 8/15/14 2/10/15 1/9/16
f 2/16/17 8/11/18 6/12/19 4/4/20
f 7/13/21 1/1/22 3/24/23 5/14/24
