# This file uses centimeters as units for non-parametric coordinates.

mtllib can-4.mtl
g default
v 0.140954 0.000471 -0.051303
v 0.114907 0.000471 -0.096418
v 0.075000 0.000471 -0.129904
v 0.026047 0.000471 -0.147721
v -0.026047 0.000471 -0.147721
v -0.075000 0.000471 -0.129904
v -0.114907 0.000471 -0.096418
v -0.140954 0.000471 -0.051303
v -0.150000 0.000471 0.000000
v -0.140954 0.000471 0.051303
v -0.114907 0.000471 0.096418
v -0.075000 0.000471 0.129904
v -0.026047 0.000471 0.147721
v 0.026047 0.000471 0.147721
v 0.075000 0.000471 0.129904
v 0.114907 0.000471 0.096418
v 0.140954 0.000471 0.051303
v 0.150000 0.000471 0.000000
v 0.140954 0.375471 -0.051303
v 0.114907 0.375471 -0.096418
v 0.075000 0.375471 -0.129904
v 0.026047 0.375471 -0.147721
v -0.026047 0.375471 -0.147721
v -0.075000 0.375471 -0.129904
v -0.114907 0.375471 -0.096418
v -0.140954 0.375471 -0.051303
v -0.150000 0.375471 0.000000
v -0.140954 0.375471 0.051303
v -0.114907 0.375471 0.096418
v -0.075000 0.375471 0.129904
v -0.026047 0.375471 0.147721
v 0.026047 0.375471 0.147721
v 0.075000 0.375471 0.129904
v 0.114907 0.375471 0.096418
v 0.140954 0.375471 0.051303
v 0.150000 0.375471 0.000000
v 0.000000 0.000471 0.000000
v 0.000000 0.375471 0.000000
vt 0.050891 0.402594
vt 0.100792 0.402594
vt 0.100792 0.778534
vt 0.150693 0.402594
vt 0.150693 0.778534
vt 0.200594 0.402594
vt 0.200594 0.778534
vt 0.250495 0.402594
vt 0.250495 0.778534
vt 0.300396 0.402594
vt 0.300396 0.778534
vt 0.350297 0.402594
vt 0.350297 0.778534
vt 0.400198 0.402594
vt 0.400198 0.778534
vt 0.450099 0.402594
vt 0.450099 0.778534
vt 0.500000 0.402594
vt 0.500000 0.778534
vt 0.549901 0.402594
vt 0.549901 0.778534
vt 0.599802 0.402594
vt 0.599802 0.778534
vt 0.649703 0.402594
vt 0.649703 0.778534
vt 0.699604 0.402594
vt 0.699604 0.778534
vt 0.749505 0.402594
vt 0.749505 0.778534
vt 0.799406 0.402594
vt 0.799406 0.778534
vt 0.849307 0.402594
vt 0.849307 0.778534
vt 0.899208 0.402594
vt 0.899208 0.778534
vt 0.949109 0.402594
vt 0.949109 0.778534
vt -0.380306 0.145909
vt -0.353173 0.192904
vt -0.500000 0.240094
vt -0.421875 0.111028
vt -0.472867 0.092468
vt -0.527133 0.092468
vt -0.578125 0.111028
vt -0.619694 0.145909
vt -0.646827 0.192904
vt -0.656250 0.246344
vt -0.646827 0.299785
vt -0.619694 0.346780
vt -0.578125 0.381661
vt -0.527133 0.400221
vt -0.472867 0.400221
vt -0.421875 0.381661
vt -0.380306 0.346780
vt -0.353173 0.299785
vt -0.343750 0.246344
vt 0.641289 0.301753
vt 0.614157 0.348748
vt 0.494462 0.242062
vt 0.572587 0.383629
vt 0.521595 0.402188
vt 0.467330 0.402188
vt 0.416337 0.383629
vt 0.374768 0.348748
vt 0.347635 0.301753
vt 0.338212 0.248312
vt 0.347635 0.194871
vt 0.374768 0.147877
vt 0.416337 0.112996
vt 0.467329 0.094436
vt 0.521595 0.094436
vt 0.572587 0.112996
vt 0.614156 0.147877
vt 0.641289 0.194871
vt 0.650712 0.248312
vt 0.050891 0.778534
vn 0.939693 0.000000 -0.342020
vn 0.766045 0.000000 -0.642787
vn 0.766045 0.000000 -0.642787
vn 0.766045 0.000000 -0.642787
vn 0.500000 0.000000 -0.866025
vn 0.500000 0.000000 -0.866025
vn 0.500000 0.000000 -0.866025
vn 0.173648 0.000000 -0.984808
vn 0.173649 0.000000 -0.984808
vn 0.173648 0.000000 -0.984808
vn -0.173648 0.000000 -0.984808
vn -0.173648 0.000000 -0.984808
vn -0.173648 0.000000 -0.984808
vn -0.500000 0.000000 -0.866026
vn -0.500000 0.000000 -0.866026
vn -0.500000 0.000000 -0.866026
vn -0.766044 0.000000 -0.642788
vn -0.766044 0.000000 -0.642788
vn -0.766044 0.000000 -0.642788
vn -0.939693 0.000000 -0.342020
vn -0.939693 0.000000 -0.342020
vn -0.939693 0.000000 -0.342020
vn -1.000000 0.000000 -0.000000
vn -1.000000 0.000000 -0.000000
vn -1.000000 0.000000 -0.000000
vn -0.939693 0.000000 0.342020
vn -0.939693 0.000000 0.342020
vn -0.939693 0.000000 0.342020
vn -0.766045 0.000000 0.642787
vn -0.766045 0.000000 0.642787
vn -0.766045 0.000000 0.642787
vn -0.500000 0.000000 0.866025
vn -0.500000 0.000000 0.866025
vn -0.500000 0.000000 0.866025
vn -0.173648 0.000000 0.984808
vn -0.173648 0.000000 0.984808
vn -0.173648 0.000000 0.984808
vn 0.173648 0.000000 0.984808
vn 0.173648 0.000000 0.984808
vn 0.173648 0.000000 0.984808
vn 0.500000 0.000000 0.866025
vn 0.500000 0.000000 0.866025
vn 0.500000 0.000000 0.866025
vn 0.766044 0.000000 0.642788
vn 0.766044 0.000000 0.642788
vn 0.766044 0.000000 0.642788
vn 0.939693 0.000000 0.342020
vn 0.939693 0.000000 0.342020
vn 0.939693 0.000000 0.342020
vn 1.000000 0.000000 0.000000
vn 1.000000 0.000000 0.000000
vn 1.000000 0.000000 0.000000
vn 0.939693 0.000000 -0.342020
vn 0.939693 0.000000 -0.342020
vn 0.000000 -1.000000 0.000000
vn 0.000000 -1.000000 0.000000
vn 0.000000 -1.000000 0.000000
vn 0.000000 -1.000000 0.000000
vn 0.000000 -1.000000 0.000000
vn 0.000000 -1.000000 0.000000
vn 0.000000 -1.000000 0.000000
vn 0.000000 -1.000000 0.000000
vn 0.000000 -1.000000 0.000000
vn 0.000000 -1.000000 0.000000
vn 0.000000 -1.000000 0.000000
vn 0.000000 -1.000000 0.000000
vn 0.000000 -1.000000 0.000000
vn 0.000000 -1.000000 0.000000
vn 0.000000 -1.000000 0.000000
vn 0.000000 -1.000000 0.000000
vn 0.000000 -1.000000 0.000000
vn 0.000000 -1.000000 0.000000
vn 0.000000 -1.000000 0.000000
vn 0.000000 -1.000000 0.000000
vn 0.000000 -1.000000 0.000000
vn 0.000000 -1.000000 0.000000
vn 0.000000 -1.000000 0.000000
vn 0.000000 -1.000000 0.000000
vn 0.000000 -1.000000 0.000000
vn 0.000000 -1.000000 0.000000
vn 0.000000 -1.000000 0.000000
vn 0.000000 -1.000000 0.000000
vn 0.000000 -1.000000 0.000000
vn 0.000000 -1.000000 0.000000
vn 0.000000 -1.000000 0.000000
vn 0.000000 -1.000000 0.000000
vn 0.000000 -1.000000 0.000000
vn 0.000000 -1.000000 0.000000
vn 0.000000 -1.000000 0.000000
vn 0.000000 -1.000000 0.000000
vn 0.000000 -1.000000 0.000000
vn 0.000000 -1.000000 0.000000
vn 0.000000 -1.000000 0.000000
vn 0.000000 -1.000000 0.000000
vn 0.000000 -1.000000 0.000000
vn 0.000000 -1.000000 0.000000
vn 0.000000 -1.000000 0.000000
vn 0.000000 -1.000000 0.000000
vn 0.000000 -1.000000 0.000000
vn 0.000000 -1.000000 0.000000
vn 0.000000 -1.000000 0.000000
vn 0.000000 -1.000000 0.000000
vn 0.000000 -1.000000 0.000000
vn 0.000000 -1.000000 0.000000
vn 0.000000 -1.000000 0.000000
vn 0.000000 -1.000000 0.000000
vn 0.000000 -1.000000 0.000000
vn 0.000000 -1.000000 0.000000
vn 0.000000 1.000000 0.000000
vn 0.000000 1.000000 0.000000
vn 0.000000 1.000000 0.000000
vn 0.000000 1.000000 0.000000
vn 0.000000 1.000000 0.000000
vn 0.000000 1.000000 0.000000
vn 0.000000 1.000000 0.000000
vn 0.000000 1.000000 0.000000
vn 0.000000 1.000000 0.000000
vn 0.000000 1.000000 0.000000
vn 0.000000 1.000000 0.000000
vn 0.000000 1.000000 0.000000
vn 0.000000 1.000000 0.000000
vn 0.000000 1.000000 0.000000
vn 0.000000 1.000000 0.000000
vn 0.000000 1.000000 0.000000
vn 0.000000 1.000000 0.000000
vn 0.000000 1.000000 0.000000
vn 0.000000 1.000000 0.000000
vn 0.000000 1.000000 0.000000
vn 0.000000 1.000000 0.000000
vn 0.000000 1.000000 0.000000
vn 0.000000 1.000000 0.000000
vn 0.000000 1.000000 0.000000
vn 0.000000 1.000000 0.000000
vn 0.000000 1.000000 0.000000
vn 0.000000 1.000000 0.000000
vn 0.000000 1.000000 0.000000
vn 0.000000 1.000000 0.000000
vn 0.000000 1.000000 0.000000
vn 0.000000 1.000000 0.000000
vn 0.000000 1.000000 0.000000
vn 0.000000 1.000000 0.000000
vn 0.000000 1.000000 0.000000
vn 0.000000 1.000000 0.000000
vn 0.000000 1.000000 0.000000
vn 0.000000 1.000000 0.000000
vn 0.000000 1.000000 0.000000
vn 0.000000 1.000000 0.000000
vn 0.000000 1.000000 0.000000
vn 0.000000 1.000000 0.000000
vn 0.000000 1.000000 0.000000
vn 0.000000 1.000000 0.000000
vn 0.000000 1.000000 0.000000
vn 0.000000 1.000000 0.000000
vn 0.000000 1.000000 0.000000
vn 0.000000 1.000000 0.000000
vn 0.000000 1.000000 0.000000
vn 0.000000 1.000000 0.000000
vn 0.000000 1.000000 0.000000
vn 0.000000 1.000000 0.000000
vn 0.000000 1.000000 0.000000
vn 0.000000 1.000000 0.000000
vn 0.000000 1.000000 0.000000
vn -0.939693 0.000000 0.342020
vn -0.766045 0.000000 0.642787
vn -0.939693 0.000000 0.342020
vn -0.766045 0.000000 0.642787
vn -0.500000 0.000000 0.866025
vn -0.766045 0.000000 0.642787
vn -0.500000 0.000000 0.866025
vn -0.173648 0.000000 0.984808
vn -0.500000 0.000000 0.866025
vn -0.173648 0.000000 0.984808
vn 0.173648 0.000000 0.984808
vn -0.173648 0.000000 0.984808
vn 0.173648 0.000000 0.984808
vn 0.500000 0.000000 0.866025
vn 0.173648 0.000000 0.984808
vn 0.500000 0.000000 0.866025
vn 0.766044 0.000000 0.642788
vn 0.500000 0.000000 0.866025
vn 0.766044 0.000000 0.642788
vn 0.939693 0.000000 0.342020
vn 0.766044 0.000000 0.642788
vn 0.939693 0.000000 0.342020
vn 1.000000 0.000000 0.000000
vn 0.939693 0.000000 0.342020
vn 1.000000 0.000000 0.000000
vn 0.939693 0.000000 -0.342020
vn 1.000000 0.000000 0.000000
vn 0.939693 0.000000 -0.342020
vn 0.766045 0.000000 -0.642787
vn 0.939693 0.000000 -0.342020
vn 0.766045 0.000000 -0.642787
vn 0.500000 0.000000 -0.866025
vn 0.766045 0.000000 -0.642787
vn 0.500000 0.000000 -0.866025
vn 0.173649 0.000000 -0.984808
vn 0.500000 0.000000 -0.866025
vn 0.173648 0.000000 -0.984808
vn -0.173648 0.000000 -0.984808
vn 0.173649 0.000000 -0.984808
vn -0.173648 0.000000 -0.984808
vn -0.500000 0.000000 -0.866026
vn -0.173648 0.000000 -0.984808
vn -0.500000 0.000000 -0.866026
vn -0.766044 0.000000 -0.642788
vn -0.500000 0.000000 -0.866026
vn -0.766044 0.000000 -0.642788
vn -0.939693 0.000000 -0.342020
vn -0.766044 0.000000 -0.642788
vn -0.939693 0.000000 -0.342020
vn -1.000000 0.000000 -0.000000
vn -0.939693 0.000000 -0.342020
vn -1.000000 0.000000 -0.000000
vn -0.939693 0.000000 0.342020
vn -1.000000 0.000000 -0.000000
s off
g can_4:pCylinder1
usemtl initialShadingGroup
f 1/1/1 2/2/2 20/3/3
f 2/2/4 3/4/5 21/5/6
f 3/4/7 4/6/8 22/7/9
f 4/6/10 5/8/11 23/9/12
f 5/8/13 6/10/14 24/11/15
f 6/10/16 7/12/17 25/13/18
f 7/12/19 8/14/20 26/15/21
f 8/14/22 9/16/23 27/17/24
f 9/16/25 10/18/26 28/19/27
f 10/18/28 11/20/29 29/21/30
f 11/20/31 12/22/32 30/23/33
f 12/22/34 13/24/35 31/25/36
f 13/24/37 14/26/38 32/27/39
f 14/26/40 15/28/41 33/29/42
f 15/28/43 16/30/44 34/31/45
f 16/30/46 17/32/47 35/33/48
f 17/32/49 18/34/50 36/35/51
f 18/34/52 1/36/53 19/37/54
f 2/38/55 1/39/56 37/40/57
f 3/41/58 2/38/59 37/40/60
f 4/42/61 3/41/62 37/40/63
f 5/43/64 4/42/65 37/40/66
f 6/44/67 5/43/68 37/40/69
f 7/45/70 6/44/71 37/40/72
f 8/46/73 7/45/74 37/40/75
f 9/47/76 8/46/77 37/40/78
f 10/48/79 9/47/80 37/40/81
f 11/49/82 10/48/83 37/40/84
f 12/50/85 11/49/86 37/40/87
f 13/51/88 12/50/89 37/40/90
f 14/52/91 13/51/92 37/40/93
f 15/53/94 14/52/95 37/40/96
f 16/54/97 15/53/98 37/40/99
f 17/55/100 16/54/101 37/40/102
f 18/56/103 17/55/104 37/40/105
f 1/39/106 18/56/107 37/40/108
f 19/57/109 20/58/110 38/59/111
f 20/58/112 21/60/113 38/59/114
f 21/60/115 22/61/116 38/59/117
f 22/61/118 23/62/119 38/59/120
f 23/62/121 24/63/122 38/59/123
f 24/63/124 25/64/125 38/59/126
f 25/64/127 26/65/128 38/59/129
f 26/65/130 27/66/131 38/59/132
f 27/66/133 28/67/134 38/59/135
f 28/67/136 29/68/137 38/59/138
f 29/68/139 30/69/140 38/59/141
f 30/69/142 31/70/143 38/59/144
f 31/70/145 32/71/146 38/59/147
f 32/71/148 33/72/149 38/59/150
f 33/72/151 34/73/152 38/59/153
f 34/73/154 35/74/155 38/59/156
f 35/74/157 36/75/158 38/59/159
f 36/75/160 19/57/161 38/59/162
f 10/18/163 29/21/164 28/19/165
f 11/20/166 30/23/167 29/21/168
f 12/22/169 31/25/170 30/23/171
f 13/24/172 32/27/173 31/25/174
f 14/26/175 33/29/176 32/27/177
f 15/28/178 34/31/179 33/29/180
f 16/30/181 35/33/182 34/31/183
f 17/32/184 36/35/185 35/33/186
f 18/34/187 19/37/188 36/35/189
f 1/1/190 20/3/191 19/76/192
f 2/2/193 21/5/194 20/3/195
f 3/4/196 22/7/197 21/5/198
f 4/6/199 23/9/200 22/7/201
f 5/8/202 24/11/203 23/9/204
f 6/10/205 25/13/206 24/11/207
f 7/12/208 26/15/209 25/13/210
f 8/14/211 27/17/212 26/15/213
f 9/16/214 28/19/215 27/17/216
